<mxfile host="app.diagrams.net" modified="2023-02-02T10:18:00.920Z" agent="5.0 (Macintosh; Intel Mac OS X 10_15_7) AppleWebKit/537.36 (KHTML, like Gecko) Chrome/109.0.0.0 Safari/537.36" etag="Z_Hj_SQabWjrgNwl3LkQ" version="17.2.4" type="github">
  <diagram id="KqAuOYD_wjd5H8KZuplN" name="Page-1">
    <mxGraphModel dx="1562" dy="999" grid="1" gridSize="10" guides="1" tooltips="1" connect="1" arrows="1" fold="1" page="1" pageScale="1" pageWidth="850" pageHeight="1100" math="0" shadow="0">
      <root>
        <mxCell id="0" />
        <mxCell id="1" parent="0" />
        <mxCell id="9jD7Lg_3mIcXIlQXaH7G-1" value="Initiation - eventlistener setting up the interface" style="rounded=1;whiteSpace=wrap;html=1;" vertex="1" parent="1">
          <mxGeometry x="140" y="100" width="120" height="60" as="geometry" />
        </mxCell>
        <mxCell id="9jD7Lg_3mIcXIlQXaH7G-2" value="" style="endArrow=none;html=1;rounded=0;" edge="1" parent="1">
          <mxGeometry width="50" height="50" relative="1" as="geometry">
            <mxPoint x="199" y="200" as="sourcePoint" />
            <mxPoint x="199" y="160" as="targetPoint" />
          </mxGeometry>
        </mxCell>
        <mxCell id="9jD7Lg_3mIcXIlQXaH7G-7" value="Random choice" style="rounded=1;whiteSpace=wrap;html=1;" vertex="1" parent="1">
          <mxGeometry x="147.5" y="200" width="105" height="50" as="geometry" />
        </mxCell>
        <mxCell id="9jD7Lg_3mIcXIlQXaH7G-8" value="User choice" style="rounded=1;whiteSpace=wrap;html=1;" vertex="1" parent="1">
          <mxGeometry x="140" y="320" width="120" height="60" as="geometry" />
        </mxCell>
        <mxCell id="9jD7Lg_3mIcXIlQXaH7G-9" value="" style="endArrow=none;html=1;rounded=0;" edge="1" parent="1" source="9jD7Lg_3mIcXIlQXaH7G-8">
          <mxGeometry width="50" height="50" relative="1" as="geometry">
            <mxPoint x="150" y="300" as="sourcePoint" />
            <mxPoint x="200" y="250" as="targetPoint" />
          </mxGeometry>
        </mxCell>
        <mxCell id="9jD7Lg_3mIcXIlQXaH7G-10" value="" style="triangle;whiteSpace=wrap;html=1;direction=south;" vertex="1" parent="1">
          <mxGeometry x="175" y="440" width="50" height="30" as="geometry" />
        </mxCell>
        <mxCell id="9jD7Lg_3mIcXIlQXaH7G-11" value="" style="triangle;whiteSpace=wrap;html=1;direction=north;" vertex="1" parent="1">
          <mxGeometry x="175" y="470" width="50" height="30" as="geometry" />
        </mxCell>
        <mxCell id="9jD7Lg_3mIcXIlQXaH7G-12" value="" style="endArrow=none;html=1;rounded=0;exitX=0;exitY=0.5;exitDx=0;exitDy=0;entryX=0.5;entryY=1;entryDx=0;entryDy=0;" edge="1" parent="1" source="9jD7Lg_3mIcXIlQXaH7G-10" target="9jD7Lg_3mIcXIlQXaH7G-8">
          <mxGeometry width="50" height="50" relative="1" as="geometry">
            <mxPoint x="147.5" y="430" as="sourcePoint" />
            <mxPoint x="200" y="400" as="targetPoint" />
          </mxGeometry>
        </mxCell>
        <mxCell id="9jD7Lg_3mIcXIlQXaH7G-13" value="" style="endArrow=none;html=1;rounded=0;" edge="1" parent="1">
          <mxGeometry width="50" height="50" relative="1" as="geometry">
            <mxPoint x="200" y="560" as="sourcePoint" />
            <mxPoint x="200" y="500" as="targetPoint" />
          </mxGeometry>
        </mxCell>
        <mxCell id="9jD7Lg_3mIcXIlQXaH7G-14" value="" style="endArrow=none;html=1;rounded=0;" edge="1" parent="1">
          <mxGeometry width="50" height="50" relative="1" as="geometry">
            <mxPoint x="200" y="560" as="sourcePoint" />
            <mxPoint x="360" y="560" as="targetPoint" />
          </mxGeometry>
        </mxCell>
        <mxCell id="9jD7Lg_3mIcXIlQXaH7G-15" value="" style="endArrow=none;html=1;rounded=0;" edge="1" parent="1">
          <mxGeometry width="50" height="50" relative="1" as="geometry">
            <mxPoint x="360" y="560" as="sourcePoint" />
            <mxPoint x="360" y="120" as="targetPoint" />
          </mxGeometry>
        </mxCell>
        <mxCell id="9jD7Lg_3mIcXIlQXaH7G-16" value="" style="endArrow=none;html=1;rounded=0;" edge="1" parent="1">
          <mxGeometry width="50" height="50" relative="1" as="geometry">
            <mxPoint x="360" y="120" as="sourcePoint" />
            <mxPoint x="600" y="120" as="targetPoint" />
          </mxGeometry>
        </mxCell>
        <mxCell id="9jD7Lg_3mIcXIlQXaH7G-17" value="" style="rhombus;whiteSpace=wrap;html=1;" vertex="1" parent="1">
          <mxGeometry x="570" y="180" width="60" height="60" as="geometry" />
        </mxCell>
        <mxCell id="9jD7Lg_3mIcXIlQXaH7G-18" value="" style="endArrow=none;html=1;rounded=0;exitX=0.5;exitY=0;exitDx=0;exitDy=0;" edge="1" parent="1" source="9jD7Lg_3mIcXIlQXaH7G-17">
          <mxGeometry width="50" height="50" relative="1" as="geometry">
            <mxPoint x="450.0000000000002" y="159.29" as="sourcePoint" />
            <mxPoint x="600" y="120" as="targetPoint" />
          </mxGeometry>
        </mxCell>
        <mxCell id="9jD7Lg_3mIcXIlQXaH7G-20" value="" style="endArrow=none;html=1;rounded=0;" edge="1" parent="1">
          <mxGeometry width="50" height="50" relative="1" as="geometry">
            <mxPoint x="520" y="210" as="sourcePoint" />
            <mxPoint x="570" y="210" as="targetPoint" />
          </mxGeometry>
        </mxCell>
        <mxCell id="9jD7Lg_3mIcXIlQXaH7G-21" value="" style="endArrow=none;html=1;rounded=0;" edge="1" parent="1">
          <mxGeometry width="50" height="50" relative="1" as="geometry">
            <mxPoint x="629.9999999999998" y="209.64" as="sourcePoint" />
            <mxPoint x="679.9999999999998" y="209.64" as="targetPoint" />
          </mxGeometry>
        </mxCell>
        <mxCell id="9jD7Lg_3mIcXIlQXaH7G-22" value="" style="endArrow=none;html=1;rounded=0;exitX=0.5;exitY=1;exitDx=0;exitDy=0;entryX=0.5;entryY=0;entryDx=0;entryDy=0;startArrow=none;" edge="1" parent="1" source="9jD7Lg_3mIcXIlQXaH7G-33" target="9jD7Lg_3mIcXIlQXaH7G-26">
          <mxGeometry width="50" height="50" relative="1" as="geometry">
            <mxPoint x="599.9999999999998" y="260.0000000000001" as="sourcePoint" />
            <mxPoint x="600" y="280" as="targetPoint" />
          </mxGeometry>
        </mxCell>
        <mxCell id="9jD7Lg_3mIcXIlQXaH7G-23" value="" style="endArrow=none;html=1;rounded=0;entryX=0.942;entryY=0.013;entryDx=0;entryDy=0;entryPerimeter=0;startArrow=none;" edge="1" parent="1" source="9jD7Lg_3mIcXIlQXaH7G-34" target="9jD7Lg_3mIcXIlQXaH7G-26">
          <mxGeometry width="50" height="50" relative="1" as="geometry">
            <mxPoint x="680" y="210" as="sourcePoint" />
            <mxPoint x="680" y="280" as="targetPoint" />
          </mxGeometry>
        </mxCell>
        <mxCell id="9jD7Lg_3mIcXIlQXaH7G-24" value="" style="endArrow=none;html=1;rounded=0;startArrow=none;entryX=0.056;entryY=0.019;entryDx=0;entryDy=0;entryPerimeter=0;" edge="1" parent="1" source="9jD7Lg_3mIcXIlQXaH7G-31" target="9jD7Lg_3mIcXIlQXaH7G-26">
          <mxGeometry width="50" height="50" relative="1" as="geometry">
            <mxPoint x="519.9999999999998" y="210" as="sourcePoint" />
            <mxPoint x="519.9999999999998" y="280" as="targetPoint" />
          </mxGeometry>
        </mxCell>
        <mxCell id="9jD7Lg_3mIcXIlQXaH7G-35" value="" style="edgeStyle=orthogonalEdgeStyle;rounded=0;orthogonalLoop=1;jettySize=auto;html=1;" edge="1" parent="1" source="9jD7Lg_3mIcXIlQXaH7G-26" target="9jD7Lg_3mIcXIlQXaH7G-27">
          <mxGeometry relative="1" as="geometry" />
        </mxCell>
        <mxCell id="9jD7Lg_3mIcXIlQXaH7G-26" value="Show screen based on result" style="rounded=1;whiteSpace=wrap;html=1;" vertex="1" parent="1">
          <mxGeometry x="510" y="320" width="180" height="80" as="geometry" />
        </mxCell>
        <mxCell id="9jD7Lg_3mIcXIlQXaH7G-27" value="" style="ellipse;html=1;shape=endState;fillColor=#000000;strokeColor=#ff0000;" vertex="1" parent="1">
          <mxGeometry x="570" y="480" width="60" height="60" as="geometry" />
        </mxCell>
        <mxCell id="9jD7Lg_3mIcXIlQXaH7G-28" value="" style="endArrow=none;html=1;rounded=0;exitX=0.5;exitY=0;exitDx=0;exitDy=0;" edge="1" parent="1" source="9jD7Lg_3mIcXIlQXaH7G-27">
          <mxGeometry width="50" height="50" relative="1" as="geometry">
            <mxPoint x="550" y="410" as="sourcePoint" />
            <mxPoint x="600" y="400" as="targetPoint" />
          </mxGeometry>
        </mxCell>
        <mxCell id="9jD7Lg_3mIcXIlQXaH7G-29" value="Handshake animation" style="rounded=1;whiteSpace=wrap;html=1;fillColor=#f5f5f5;fontColor=#333333;strokeColor=#666666;" vertex="1" parent="1">
          <mxGeometry x="20" y="440" width="142" height="60" as="geometry" />
        </mxCell>
        <mxCell id="9jD7Lg_3mIcXIlQXaH7G-30" value="Evaluation&lt;br&gt;computer vs. user" style="rounded=1;whiteSpace=wrap;html=1;fillColor=#f5f5f5;fontColor=#333333;strokeColor=#666666;" vertex="1" parent="1">
          <mxGeometry x="630" y="130" width="142" height="60" as="geometry" />
        </mxCell>
        <mxCell id="9jD7Lg_3mIcXIlQXaH7G-31" value="PC wins" style="rounded=1;whiteSpace=wrap;html=1;fillColor=#f5f5f5;fontColor=#333333;strokeColor=#666666;" vertex="1" parent="1">
          <mxGeometry x="490" y="250" width="60" height="30" as="geometry" />
        </mxCell>
        <mxCell id="9jD7Lg_3mIcXIlQXaH7G-32" value="" style="endArrow=none;html=1;rounded=0;" edge="1" parent="1" target="9jD7Lg_3mIcXIlQXaH7G-31">
          <mxGeometry width="50" height="50" relative="1" as="geometry">
            <mxPoint x="519.9999999999998" y="210" as="sourcePoint" />
            <mxPoint x="519.9999999999998" y="280" as="targetPoint" />
          </mxGeometry>
        </mxCell>
        <mxCell id="9jD7Lg_3mIcXIlQXaH7G-33" value="Draw" style="rounded=1;whiteSpace=wrap;html=1;fillColor=#f5f5f5;fontColor=#333333;strokeColor=#666666;" vertex="1" parent="1">
          <mxGeometry x="570" y="250" width="60" height="30" as="geometry" />
        </mxCell>
        <mxCell id="9jD7Lg_3mIcXIlQXaH7G-37" value="" style="endArrow=none;html=1;rounded=0;exitX=0.5;exitY=1;exitDx=0;exitDy=0;entryX=0.5;entryY=0;entryDx=0;entryDy=0;" edge="1" parent="1" source="9jD7Lg_3mIcXIlQXaH7G-17" target="9jD7Lg_3mIcXIlQXaH7G-33">
          <mxGeometry width="50" height="50" relative="1" as="geometry">
            <mxPoint x="600" y="240" as="sourcePoint" />
            <mxPoint x="600" y="320" as="targetPoint" />
          </mxGeometry>
        </mxCell>
        <mxCell id="9jD7Lg_3mIcXIlQXaH7G-34" value="User wins" style="rounded=1;whiteSpace=wrap;html=1;fillColor=#f5f5f5;fontColor=#333333;strokeColor=#666666;" vertex="1" parent="1">
          <mxGeometry x="650" y="250" width="60" height="30" as="geometry" />
        </mxCell>
        <mxCell id="9jD7Lg_3mIcXIlQXaH7G-39" value="" style="endArrow=none;html=1;rounded=0;entryX=0.5;entryY=0;entryDx=0;entryDy=0;" edge="1" parent="1" target="9jD7Lg_3mIcXIlQXaH7G-34">
          <mxGeometry width="50" height="50" relative="1" as="geometry">
            <mxPoint x="680" y="210" as="sourcePoint" />
            <mxPoint x="679.56" y="321.03999999999996" as="targetPoint" />
          </mxGeometry>
        </mxCell>
      </root>
    </mxGraphModel>
  </diagram>
</mxfile>
